<?xml version="1.0" encoding="utf-8"?>
<svg viewBox="0 0 20 20" xmlns="http://www.w3.org/2000/svg">
  <path d="M 14.729 8.418 C 14.976 8.142 15.043 7.75 14.903 7.408 C 14.714 7.069 14.343 6.873 13.957 6.908 L 6.037 6.908 C 5.651 6.873 5.28 7.069 5.091 7.408 C 4.951 7.75 5.018 8.142 5.264 8.418 L 9.064 13.418 C 9.512 14.075 10.481 14.075 10.929 13.418 L 14.729 8.418 Z M 2 0 L 18 0 C 19.105 0 20 0.895 20 2 L 20 18 C 20 19.105 19.105 20 18 20 L 2 20 C 0.895 20 0 19.105 0 18 L 0 2 C 0 0.895 0.895 0 2 0 Z" style="fill: rgb(255, 255, 255); transform-origin: 10px 10px;" transform="matrix(-1, 0, 0, -1, 0, 0)"/>
</svg>